<?xml version="1.0" encoding="UTF-8"?>
<svg width="58.091mm" height="58.663mm" version="1.1" viewBox="0 0 58.091 58.663" xmlns="http://www.w3.org/2000/svg">
<g transform="translate(-80.755 -49.476)">
<path d="m131.4 60.037c0-3.5387-2.8688-6.4075-6.4075-6.4075-3.3038 0-6.0212 2.5001-6.3684 5.7111-2.4183-1.3049-5.5891-2.2052-9.786-2.3354 0 0-4.1582-0.44803-8.2737 1.8217-0.56621-2.9595-3.1651-5.1975-6.29-5.1975-3.5387 0-6.4075 2.8688-6.4075 6.4075 0 3.496 2.8007 6.3327 6.2802 6.4015-0.58632 1.5088-1.0407 3.2561-1.3141 5.2793-2.1869 16.204 9.2452 18.192 22.865 16.403 13.619-1.7893 11.73-13.023 11.034-16.005-0.25083-1.076-0.57079-3.2784-1.6231-5.6765 3.4847-0.06279 6.2914-2.9023 6.2914-6.4019" fill="#e4e4e4"/>
<path d="m109.68 106.9v-0.0134c-5.0433-0.20567-7.9118-2.6737-7.9118-2.6737-7.0302-2.6864-4.4778-11.732-4.4778-11.732l-8.1495-3.0448c-1.1688 0.20638-2.0535-0.01482-2.685-0.47731-0.09102 0.05292-0.18803 0.09737-0.29528 0.12241l-2.3506 0.54434c-0.57961 0.13441-1.1635-0.23001-1.2975-0.80927-0.13441-0.57926 0.23001-1.1635 0.80927-1.2975l1.9812-0.45896c-0.01764-0.08361-0.0321-0.16757-0.0441-0.25259l-2.244-0.11818c-0.59408-0.0314-1.0545-0.54328-1.0231-1.137 0.0314-0.59408 0.54292-1.0541 1.137-1.0227l2.3996 0.12665c0.02716-0.06421 0.05645-0.12665 0.08714-0.18803l-1.7738-1.1105c-0.50412-0.31574-0.65828-0.98637-0.34255-1.4905 0.31574-0.50412 0.98637-0.65828 1.4905-0.34255l2.0451 1.2806c0.11324 0.07091 0.20638 0.16192 0.28293 0.26282 0.69427-0.06703 1.2411 0.3235 1.2411 0.3235 0.01023-0.05891 0.02081-0.11677 0.03175-0.17321 0.68792-3.593 2.2119-2.3262 2.5202-1.797 0.31362 0.53728-0.44768 2.5075-0.44768 2.5075l9.5377 3.5377 9.598 0.30939 9.598-0.30939 9.5377-3.5377s-0.7613-1.9703-0.44768-2.5075c0.30868-0.52917 1.8323-1.796 2.5202 1.797 0.0106 0.05644 0.0215 0.1143 0.0317 0.17321 0 0 0.5468-0.39052 1.2414-0.3235 0.0762-0.10089 0.16933-0.19191 0.28258-0.26282l2.045-1.2806c0.50412-0.31574 1.1748-0.16157 1.4905 0.34255 0.31539 0.50412 0.16158 1.1748-0.34254 1.4905l-1.7734 1.1105c0.0303 0.06138 0.0596 0.12382 0.0868 0.18803l2.3999-0.12665c0.59373-0.0314 1.1053 0.42862 1.1363 1.0227 0.0317 0.59372-0.42862 1.1056-1.0224 1.137l-2.2444 0.11818c-0.012 0.08502-0.0268 0.16898-0.0437 0.25259l1.9808 0.45896c0.57926 0.13406 0.94368 0.71826 0.80963 1.2975-0.13441 0.57926-0.71826 0.94368-1.2979 0.80927l-2.3506-0.54434c-0.1076-0.02505-0.20426-0.0695-0.29528-0.12241-0.63147 0.46249-1.5162 0.68368-2.6846 0.47731l-8.1499 3.0448s2.5524 9.0452-4.4774 11.732c0 0-2.8684 2.468-7.9121 2.6737v0.0134h-0.23777" fill="#e4e4e4"/>
<path d="m136.19 81.31s-0.76906 2.2849-2.5788 2.7372l0.33937 0.58808 2.3298-0.81421s0.83679-1.5607-0.0903-2.5111" fill="#adadad"/>
<path d="m138 85.201s-1.3116 1.0633-3.5736 0.95003l-0.2487 0.7239 3.0307 0.49777 0.79163-2.1717" fill="#adadad"/>
<path d="m137.5 88.707s-1.0407 1.1536-4.0943-0.09066c0 0-1.4249 0.8823-2.8049 0.20355 0 0-9.6135 4.4111-12.622 4.5921l1.3575 2.3072s3.6647-2.9633 7.4193-4.2975c3.7553-1.3349 3.7324-1.2446 3.7324-1.2446s2.0133 0.43004 2.8053-0.51999c0 0 3.7324 1.6062 4.2072-0.95003" fill="#adadad"/>
<path d="m100.56 58.827s8.5425-2.0764 18.06 0.51364c0 0-10.542-6.4096-18.06-0.51364" fill="#fff"/>
<path d="m83.483 81.31s0.76941 2.2849 2.5788 2.7372l-0.33902 0.58808-2.3301-0.81421s-0.83714-1.5607 0.09031-2.5111" fill="#adadad"/>
<path d="m81.673 85.201s1.312 1.0633 3.574 0.95003l0.24871 0.7239-3.0311 0.49777-0.79163-2.1717" fill="#adadad"/>
<path d="m82.171 88.707s1.0403 1.1536 4.0943-0.09066c0 0 1.4249 0.8823 2.8046 0.20355 0 0 9.6139 4.4111 12.622 4.5921l-1.3575 2.3072s-3.6643-2.9633-7.4193-4.2975c-3.755-1.3349-3.7324-1.2446-3.7324-1.2446s-2.013 0.43004-2.8049-0.51999c0 0-3.7324 1.6062-4.2072-0.95003" fill="#adadad"/>
<path d="m127.02 71.315s-0.14534 11.854-7.4905 15.927c0 0 10.691-2.2546 7.4905-15.927" fill="#adadad"/>
<path d="m92.55 71.461s-0.29069 15.418 15.563 17.163c0 0-13.236 0.50906-15.272-8.0726 0 0-1.4545-5.0906-0.29104-9.0904" fill="#adadad"/>
<path d="m133.04 83.517c0.49954 0.11218 0.89218 0.40111 1.2167 0.7687 0.31891 0.37077 0.54327 0.85266 0.60854 1.3758 0.0748 0.51964-0.0233 1.0774-0.28223 1.5138-0.236 0.4505-0.62018 0.77576-1.0386 0.98601-0.0497 0.02469-0.10972 0.0046-0.13441-0.04445l-9e-3 -0.06174 2e-3 -0.01517c0.0402-0.23707 0.11677-0.43004 0.1591-0.62936 0.0318-0.20249 0.0896-0.381 0.096-0.56303 0.048-0.3556 0.0325-0.67486-0.0363-0.99236-0.066-0.31644-0.17216-0.635-0.30304-0.98354-0.12911-0.3496-0.28857-0.72002-0.43497-1.1603l-5e-3 -0.01623c-0.024-0.07232 0.0152-0.15028 0.0875-0.17427l0.0737-0.0039" fill="#333"/>
<path d="m117.31 103.88c0.44062-0.82197 0.83679-1.7544 1.113-2.6734 0.28328-0.92533 0.46214-1.8722 0.48471-2.8116 0.0169-0.46955-0.0226-0.93486-0.1023-1.3903-0.0748-0.45685-0.1972-0.90417-0.37994-1.3296-0.0801-0.21766-0.19791-0.41804-0.30022-0.62724-0.12876-0.19403-0.23001-0.40569-0.36089-0.6036-0.22966-0.41981-0.50094-0.81915-0.71825-1.3339l-4e-3 -0.0099c-0.0381-0.09066 4e-3 -0.19544 0.0949-0.23354 0.0406-0.01693 0.0843-0.01799 0.12312-0.0056 1.0929 0.34502 1.8538 1.2721 2.3262 2.2856 0.51223 1.0089 0.72848 2.1505 0.7366 3.2604-4e-3 1.113-0.2032 2.2052-0.54787 3.2318-0.16616 0.51576-0.38029 1.0125-0.61418 1.4968-0.23813 0.48966-0.48366 0.94545-0.81386 1.4182-0.19544 0.28011-0.58103 0.3489-0.86078 0.15311-0.26-0.18133-0.33796-0.52635-0.19121-0.79905l0.0152-0.0282" fill="#333"/>
<path d="m101.29 104.6c-0.35454-0.45508-0.62054-0.88582-0.86784-1.361-0.24941-0.46637-0.46355-0.95144-0.63782-1.452-0.34325-1.0019-0.54716-2.0669-0.5327-3.1397-0.01235-0.53658 0.08749-1.0686 0.16792-1.5956 0.14676-0.51541 0.2607-1.0393 0.49812-1.5176 0.11465-0.23883 0.18803-0.49848 0.33867-0.7172 0.13582-0.22613 0.27763-0.44909 0.4258-0.66534 0.13582-0.22542 0.33796-0.40146 0.52247-0.58632 0.18944-0.18133 0.38593-0.35348 0.59795-0.50588 0.0741-0.05292 0.17675-0.03563 0.23001 0.0381 0.0318 0.04445 0.0385 0.09948 0.0222 0.14781l-8e-3 0.02328c-0.16863 0.49742-0.43427 0.89923-0.63288 1.3353-0.19403 0.43674-0.43921 0.84102-0.57186 1.294-0.18732 0.43251-0.25294 0.89782-0.35771 1.349-0.0385 0.46355-0.10231 0.92322-0.061 1.3878 0.0339 0.92428 0.21625 1.8482 0.54751 2.7266 0.32138 0.86889 0.77611 1.7473 1.2866 2.4684l0.024 0.0335c0.1972 0.27869 0.13123 0.66428-0.14711 0.86148-0.27023 0.19156-0.64241 0.13406-0.84455-0.12453" fill="#333"/>
<path d="m99.813 97.922c-0.87983-0.33831-1.8694-0.36195-2.8748-0.1972 0.31397 2.4973 1.488 5.2126 4.8316 6.4904 0 0 2.8684 2.468 7.9118 2.6737v0.0134h0.23777v-0.0134c5.0437-0.20567 7.9121-2.6737 7.9121-2.6737 2.7633-1.0559 4.0428-3.0946 4.5819-5.1802l-2.7284-1.113c-13.489-5.48-19.872 0-19.872 0" fill="#fff"/>
<path d="m101.86 102.11-0.99166 1.6962c0.28222 0.14782 0.5775 0.28787 0.89888 0.41028 0 0 2.8684 2.468 7.9118 2.6737v0.0134h0.23777v-0.0134c5.0437-0.20567 7.9121-2.6737 7.9121-2.6737 0.0684-0.0261 0.13194-0.0554 0.19861-0.0829l-0.76553-2.492c-8.6378 5.932-15.402 0.46849-15.402 0.46849" fill="#e4f6fe"/>
<path d="m122.45 57.214c0.0268-0.03775 0.054-0.07479 0.0818-0.11148 0.94051-1.2347 3.0773-1.4764 3.5853 0.30233 0.17956 0.62936-0.0829 1.0795-0.26917 1.6302 0.508-0.14676 1.13-0.14288 1.6521-0.0635 0.5969 0.09066 1.1705 0.42157 1.4647 0.96202 0.28857 0.52987 0.20955 1.1596-0.13229 1.6432-1.1271 1.5938-3.3045 1.9562-5.0786 1.5117-1.0798-0.27058-1.971-0.81421-2.1749-1.9868-0.22084-1.2689 0.11677-2.8226 0.87101-3.8876" fill="#fcdcea"/>
<path d="m97.251 57.214c-0.02681-0.03775-0.05398-0.07479-0.08185-0.11148-0.9405-1.2347-3.0773-1.4764-3.5853 0.30233-0.17956 0.62936 0.0829 1.0795 0.26882 1.6302-0.50765-0.14676-1.1299-0.14288-1.6517-0.0635-0.5969 0.09066-1.1705 0.42157-1.4651 0.96202-0.28822 0.52987-0.2092 1.1596 0.13264 1.6432 1.1271 1.5938 3.3045 1.9562 5.0789 1.5117 1.0795-0.27058 1.9706-0.81421 2.1745-1.9868 0.22084-1.2689-0.11642-2.8226-0.87101-3.8876" fill="#fcdcea"/>
<path d="m106.31 76.47c1.1455-0.44203 3.3874-0.94262 6.6428-0.04762 0.60748 0.16686 0.96943 0.80257 0.80433 1.4108-0.35031 1.289-1.2986 3.3542-3.8358 4.1797-0.15099 0.04904-0.3115 0.06597-0.46955 0.04939-0.76941-0.07937-2.9841-0.62371-3.8467-4.2192-0.13687-0.5715 0.15664-1.1613 0.70485-1.373" fill="#333"/>
<path d="m109.83 85.988c-4.0308 0-4.1437-2.6575-4.1444-2.6843-5e-3 -0.20496 0.15664-0.375 0.3616-0.3803l9e-3 -3.52e-4c0.20003 0 0.36478 0.15875 0.37113 0.35913 4e-3 0.0822 0.12559 1.9636 3.4025 1.9636 1.2696 0 2.2042-0.29104 2.703-0.84208 0.45403-0.50236 0.41205-1.0668 0.41134-1.0724-0.0205-0.2039 0.12841-0.38559 0.33196-0.40605 0.20638-0.02222 0.3863 0.12806 0.4064 0.33232 4e-3 0.03598 0.0808 0.89218-0.60007 1.6439-0.65193 0.72072-1.7466 1.0866-3.2526 1.0866" fill="#333"/>
<path d="m114.7 75.8c0.16898-0.4124 0.43321-0.73131 0.79128-0.99871 0.35277-0.26352 0.82232-0.43921 1.312-0.43109 0.48436 0.0127 0.95885 0.18027 1.3 0.45508 0.18415 0.12347 0.31503 0.2921 0.46179 0.44027 0.11924 0.16863 0.23036 0.33937 0.32173 0.51858 0.0762 0.14958 0.0169 0.33267-0.13299 0.40887-0.0875 0.0448-0.18627 0.04304-0.26882 0.0039l-0.0448-0.02187c-0.16581-0.08043-0.30833-0.17357-0.44944-0.26106-0.14958-0.06456-0.28399-0.15558-0.42122-0.20638-0.27446-0.12277-0.52634-0.16863-0.76976-0.17145-0.24236-0.0018-0.49424 0.05997-0.76588 0.17286-0.26529 0.11324-0.5581 0.2861-0.83855 0.45014l-0.0487 0.02857c-0.14887 0.08714-0.34008 0.03704-0.42686-0.11148-0.0511-0.08678-0.0547-0.1898-0.0198-0.27622" fill="#333"/>
<path d="m104.92 76.134c-0.27728-0.17745-0.57115-0.35701-0.8449-0.47237-0.2794-0.11501-0.54152-0.17639-0.79375-0.16722-0.24977 0.02011-0.50765 0.06068-0.78141 0.19262-0.0727 0.01834-0.13864 0.06315-0.20778 0.10089l-0.21872 0.10654c-0.14323 0.08678-0.28752 0.17956-0.45932 0.25647l-0.0381 0.01693c-0.13617 0.06068-0.29563-3.53e-4 -0.35631-0.13617-0.0332-0.07408-0.0296-0.15628 2e-3 -0.22437 0.0854-0.18274 0.19473-0.35348 0.31185-0.52282 0.14288-0.15028 0.27552-0.31503 0.4565-0.43956 0.34184-0.26564 0.81068-0.4385 1.288-0.43356 0.48013-7.05e-4 0.93945 0.17498 1.2841 0.43603 0.34925 0.26529 0.61278 0.57785 0.78493 0.97684 0.0589 0.13617-4e-3 0.29422-0.14005 0.35278-0.0843 0.03634-0.1771 0.02611-0.24942-0.0194l-0.0374-0.02364" fill="#333"/>
<path d="m126.53 83.503c0.25365-0.39934 0.47695-0.80821 0.67204-1.2217 0.0342 0.30868 0.0998 0.61877 0.17674 0.90699zm-34.322-0.31644c0.15452-0.57961 0.2092-1.0241 0.21026-1.3656 0.25047 0.62583 0.54328 1.2157 0.87912 1.7699zm32.778-30.794c-3.3338 0-6.1983 2.1276-7.2323 5.1611-2.5238-1.0763-5.4903-1.6753-8.8434-1.7836-0.12946-0.01164-0.47448-0.03775-0.98283-0.03775-1.3829 0-3.9165 0.19191-6.6107 1.349-1.1688-2.7901-3.925-4.6888-7.0488-4.6888-4.215 0-7.6443 3.4294-7.6443 7.6443 0 3.5683 2.5086 6.6111 5.8554 7.4256-0.38841 1.2714-0.68262 2.6409-0.87806 4.0898-0.46814 3.4692-0.34361 6.4572 0.36971 8.9549-0.36336-0.44944-1.0181-0.97331-1.8796-0.97331-1.095-3.53e-4 -1.9004 0.74754-2.4028 2.2267l-7.06e-4 -7.06e-4 -2.0451-1.2806c-0.3683-0.23072-0.79269-0.35242-1.2277-0.35242-0.80574 0-1.5413 0.4064-1.9674 1.0869-0.32808 0.52388-0.43251 1.1451-0.29351 1.7494 0.03669 0.15946 0.08925 0.31256 0.15593 0.45791-0.86819 0.30021-1.5057 1.1024-1.5568 2.069-0.03281 0.61701 0.1778 1.2107 0.59267 1.6718 0.07197 0.08008 0.14817 0.15416 0.22895 0.2226-0.2981 0.49742-0.41169 1.106-0.27093 1.7141 0.24483 1.0569 1.174 1.7953 2.2599 1.7953 0.17498 0 0.35066-0.02046 0.52176-0.05997l2.2267-0.51576c0.58773 0.28963 1.2524 0.43568 1.9844 0.43568 0.22895 0 0.46496-0.01482 0.70626-0.0441l6.8344 2.5534c-0.69603 3.7116-0.30092 9.7684 5.3008 12.036 0.73836 0.56797 3.6604 2.5799 8.3044 2.8183 0.0759 0.0148 0.15417 0.0222 0.2339 0.0222h0.23777c0.0811 0 0.16051-7e-3 0.23742-0.0226 4.6415-0.23918 7.5628-2.25 8.3005-2.818 5.6021-2.2673 5.9969-8.3241 5.3008-12.036l6.8347-2.5534c0.24095 0.02928 0.47731 0.0441 0.70591 0.0441 0.73237 0 1.397-0.14605 1.9847-0.43568l2.2267 0.51576c0.1711 0.03951 0.34678 0.05997 0.52176 0.05997 1.0858 0 2.0151-0.73836 2.2599-1.7953 0.14076-0.60819 0.0272-1.2167-0.27093-1.7141 0.0808-0.06844 0.15699-0.14252 0.2293-0.2226 0.41452-0.46108 0.62477-1.0548 0.59232-1.6718-0.0508-0.96661-0.68862-1.7688-1.5572-2.069 0.0674-0.14534 0.11959-0.29845 0.15628-0.45791 0.13899-0.60431 0.0346-1.2256-0.29351-1.7494-0.42616-0.68051-1.1614-1.0869-1.9674-1.0869-0.43463 0-0.85902 0.12171-1.2273 0.35242l-2.045 1.2806-1e-3 7.06e-4c-0.50271-1.4788-1.3078-2.2267-2.4028-2.2267-0.63182 0-1.1525 0.28187-1.5286 0.6096 0.8816-3.3881 0.3228-6.7522-0.0406-8.3093-0.0455-0.19438-0.0928-0.42792-0.14747-0.69356-0.19191-0.93592-0.45684-2.2306-0.95885-3.6894 3.3228-0.8315 5.8064-3.8608 5.8064-7.4143 0-4.215-3.429-7.6443-7.644-7.6443zm0 1.2368c3.5387 0 6.4075 2.8688 6.4075 6.4075 0 3.4996-2.8067 6.3391-6.2914 6.4019 1.0523 2.3982 1.3723 4.6006 1.6231 5.6765 0.63888 2.7368 2.2722 12.416-7.9851 15.375l0.653-0.02081 9.5377-3.5377s-0.7613-1.9703-0.44768-2.5075c0.14358-0.24659 0.55175-0.65405 1.016-0.6537 0.53164 0 1.137 0.5334 1.5042 2.4507 0.0106 0.05644 0.0215 0.1143 0.0317 0.17321 0 0 0.46355-0.33126 1.0795-0.33126 0.0526 0 0.10653 0.0025 0.16192 0.0078 0.0762-0.10089 0.16933-0.19191 0.28258-0.26282l2.045-1.2806c0.17745-0.11112 0.37535-0.16404 0.57115-0.16404 0.36089 0 0.71472 0.17992 0.91933 0.50659 0.31539 0.50412 0.16158 1.1748-0.34254 1.4905l-1.7734 1.1105c0.0303 0.06138 0.0596 0.12382 0.0868 0.18803l2.3999-0.12665 0.0572-0.0014c0.56903 0 1.0488 0.44944 1.0792 1.0241 0.0317 0.59372-0.42862 1.1056-1.0224 1.137l-2.2444 0.11818c-0.012 0.08502-0.0268 0.16898-0.0437 0.25259l1.9808 0.45896c0.57926 0.13406 0.94368 0.71826 0.80963 1.2975-0.11536 0.49812-0.56339 0.83714-1.0552 0.83714-0.0801 0-0.16157-0.0088-0.24271-0.02787l-2.3506-0.54439c-0.1076-0.02505-0.20426-0.0695-0.29528-0.12241-0.47025 0.34431-1.0809 0.55492-1.8447 0.55492-0.26176 0-0.54187-0.0247-0.83997-0.07761l-8.1499 3.0448s2.5524 9.0452-4.4774 11.732c0 0-2.8684 2.468-7.9121 2.6737v0.0134h-0.23777v-0.0134c-5.0433-0.20567-7.9118-2.6737-7.9118-2.6737-7.0302-2.6864-4.4778-11.732-4.4778-11.732l-8.1495-3.0448c-0.2988 0.05292-0.57856 0.07761-0.84067 0.07761-0.76341 0-1.3741-0.21061-1.8443-0.55492-0.09102 0.05292-0.18803 0.09737-0.29528 0.12241l-2.3506 0.54434c-0.08149 0.01905-0.16263 0.02787-0.24271 0.02787-0.49142 0-0.93945-0.33902-1.0548-0.83714-0.13441-0.57926 0.23001-1.1635 0.80927-1.2975l1.9812-0.45896c-0.01764-0.08361-0.0321-0.16757-0.0441-0.25259l-2.244-0.11818c-0.59408-0.0314-1.0545-0.54328-1.0231-1.137 0.03034-0.57503 0.51047-1.0241 1.0795-1.0241l0.0575 0.0014 2.3996 0.12665c0.02716-0.06421 0.05645-0.12665 0.08714-0.18803l-1.7738-1.1105c-0.50412-0.31574-0.65828-0.98637-0.34255-1.4905 0.20461-0.32702 0.55845-0.50659 0.91934-0.50659 0.19579 0 0.3937 0.05292 0.57115 0.16404l2.0451 1.2806c0.11324 0.07091 0.20638 0.16192 0.28293 0.26282 0.05503-0.0053 0.10901-0.0078 0.16192-0.0078 0.6156 0 1.0791 0.33126 1.0791 0.33126 0.01023-0.05891 0.02081-0.11677 0.03175-0.17321 0.36724-1.9177 0.97261-2.4511 1.5042-2.4507 0.4639 0 0.87242 0.4071 1.016 0.6537 0.31362 0.53728-0.44768 2.5075-0.44768 2.5075l8.848 3.2815c-5.0271-2.0824-7.8701-6.6844-6.6809-15.496 0.2734-2.0232 0.72778-3.7705 1.3141-5.2793-3.4794-0.06879-6.2802-2.9055-6.2802-6.4015 0-3.5387 2.8688-6.4075 6.4075-6.4075 3.1249 0 5.7238 2.238 6.29 5.1975 2.9506-1.6277 5.9231-1.8577 7.3695-1.8577 0.57079 0 0.90417 0.03598 0.90417 0.03598 4.197 0.13018 7.3678 1.0305 9.786 2.3354 0.34713-3.211 3.0646-5.7111 6.3684-5.7111" fill="#333"/>
<path d="m125.48 91.862c-0.46566 0-0.92992 0.03669-1.3783 0.10901-1.246 0.20073-2.4896 0.73942-3.5966 1.5579-2.5721 1.9018-4.131 4.9848-3.9712 7.8542 0.127 2.2811 1.3466 4.2041 3.4339 5.4148 1.167 0.67628 2.4998 1.0192 3.9624 1.0192 3.75 0 7.6172-2.2913 9.1955-5.448 1.2068-2.4144 0.93874-4.9872-0.75495-7.2443-1.5099-2.0126-4.1504-3.2628-6.8908-3.2628zm0 1.2372c2.2405-3.53e-4 4.5558 0.97402 5.9013 2.7679 3.8855 5.1784-2.0609 10.713-7.451 10.713-1.1765 0-2.3262-0.26352-3.3419-0.85231-4.6217-2.6797-2.9838-8.5157 0.65193-11.204 0.91546-0.67698 1.9572-1.1543 3.0579-1.3317 0.3877-0.06209 0.78352-0.09278 1.1818-0.09278" fill="#333"/>
<path d="m121.25 94.524c0.91546-0.67698 1.9572-1.1543 3.0579-1.3317 2.5686-0.41381 5.4984 0.56268 7.0831 2.6751 4.7336 6.3087-5.1259 13.147-10.793 9.8605-4.6217-2.6797-2.9838-8.5157 0.65193-11.204" fill="#e4e4e4"/>
<path d="m120.59 105.73c5.0567 2.9319 13.442-2.1964 11.829-7.8172-3.9814 8.0193-11.459 6.7434-13.705 6.1457 0.44873 0.63112 1.0636 1.2005 1.8754 1.6715" fill="#adadad"/>
<path d="m128.82 101.02c0 2.1043-1.706 3.8104-3.81 3.8104-2.1043 0-3.8104-1.706-3.8104-3.8104 0-2.1043 1.706-3.81 3.8104-3.81 2.104 0 3.81 1.7057 3.81 3.81" fill="#f379a7"/>
<path d="m127.41 95.508c0 0.75106-0.60889 1.3596-1.3596 1.3596-0.75107 0-1.3593-0.60854-1.3593-1.3596 0-0.75071 0.60819-1.3596 1.3593-1.3596 0.75071 0 1.3596 0.60889 1.3596 1.3596" fill="#f379a7"/>
<path d="m130.56 97.047c0 0.75071-0.60889 1.3596-1.36 1.3596-0.75071 0-1.3592-0.6089-1.3592-1.3596 0-0.75106 0.60854-1.3596 1.3592-1.3596 0.75107 0 1.36 0.60854 1.36 1.3596" fill="#f379a7"/>
<path d="m131.92 100.09c0 0.75106-0.60854 1.36-1.3596 1.36-0.75071 0-1.3596-0.6089-1.3596-1.36 0-0.75071 0.6089-1.3593 1.3596-1.3593 0.75106 0 1.3596 0.60854 1.3596 1.3593" fill="#f379a7"/>
<path d="m93.749 91.719c-2.7404 0-5.3809 1.2499-6.8908 3.2628-1.6937 2.2571-1.9618 4.8299-0.75494 7.2443 1.578 3.1566 5.4451 5.4479 9.1952 5.4479 1.463 0 2.7961-0.34325 3.9624-1.0195 2.0877-1.2104 3.3073-3.133 3.4343-5.4144 0.15981-2.8695-1.3991-5.9524-3.9712-7.8542-1.1074-0.81844-2.3509-1.3575-3.5962-1.5579-0.44909-0.07232-0.91264-0.10901-1.3787-0.10901zm0 1.2368c0.39829 0 0.7941 0.03069 1.1818 0.09313 1.1003 0.17745 2.1424 0.65476 3.0575 1.3314 3.6361 2.6885 5.274 8.5245 0.65229 11.204-1.0156 0.58879-2.1654 0.85267-3.3422 0.85267-5.3894 0-11.336-5.5347-7.451-10.713 1.3458-1.7939 3.6611-2.7682 5.9016-2.7682" fill="#333"/>
<path d="m97.988 94.38c-0.9151-0.67663-1.9572-1.1539-3.0575-1.3314-2.5686-0.41381-5.4984 0.56268-7.0834 2.6751-4.7336 6.3087 5.1262 13.147 10.793 9.8605 4.6217-2.6797 2.9838-8.5157-0.65229-11.204" fill="#e4e4e4"/>
<path d="m98.641 105.58c1.1155-0.64699 1.8634-1.4785 2.3096-2.4045-12.046 4.1293-13.15-5.0387-13.243-7.2489-4.3692 6.2502 5.328 12.904 10.933 9.6534" fill="#adadad"/>
<path d="m90.41 100.87c0 2.1043 1.706 3.81 3.81 3.81 2.1043 0 3.81-1.7057 3.81-3.81 0-2.104-1.7057-3.81-3.81-3.81-2.104 0-3.81 1.706-3.81 3.81" fill="#f379a7"/>
<path d="m91.823 95.365c0 0.75071 0.60854 1.3596 1.3596 1.3596 0.75071 0 1.3596-0.60889 1.3596-1.3596s-0.60889-1.3596-1.3596-1.3596c-0.75106 0-1.3596 0.6089-1.3596 1.3596" fill="#f379a7"/>
<path d="m88.675 96.903c0 0.75071 0.60854 1.3593 1.3596 1.3593 0.75071 0 1.3596-0.60854 1.3596-1.3593 0-0.75106-0.60889-1.36-1.3596-1.36-0.75106 0-1.3596 0.6089-1.3596 1.36" fill="#f379a7"/>
<path d="m87.315 99.944c0 0.75071 0.60854 1.3592 1.3596 1.3592s1.3596-0.60854 1.3596-1.3592c0-0.75106-0.60854-1.36-1.3596-1.36s-1.3596 0.60889-1.3596 1.36" fill="#f379a7"/>
<path d="m92.614 67.034c0.11818-0.24201 0.22331-0.38559 0.34466-0.5588 0.11783-0.16545 0.24342-0.31926 0.37077-0.4699 0.25647-0.2988 0.53093-0.57291 0.81421-0.83114 0.28363-0.25788 0.58032-0.4953 0.88336-0.72002 0.30268-0.22437 0.61666-0.43039 0.93204-0.62759l0.04445 0.0099-0.0042 0.03986c-0.25259 0.27199-0.49742 0.54786-0.72496 0.83538-0.22719 0.28751-0.44203 0.58173-0.63641 0.88512-0.19297 0.30374-0.37077 0.61313-0.52141 0.92886-0.07408 0.1584-0.14429 0.31644-0.20249 0.47519-0.05609 0.14922-0.11818 0.33549-0.13123 0.4378-0.04374 0.34572-0.35948 0.5902-0.7052 0.54645-0.34537-0.0441-0.5902-0.35983-0.5461-0.7052 0.0088-0.06985 0.02858-0.13511 0.0575-0.19509l0.02505-0.0508" fill="#333"/>
<path d="m125.5 67.439c-0.0127-0.10231-0.0748-0.28857-0.13088-0.4378-0.0582-0.15875-0.12912-0.3168-0.2032-0.47519-0.14994-0.31574-0.32774-0.62512-0.52106-0.92886-0.19473-0.30339-0.40922-0.5976-0.63641-0.88512-0.22754-0.28751-0.47237-0.56339-0.72496-0.83538l7.1e-4 -0.04586 0.0399-0.0039c0.31503 0.1972 0.62901 0.40322 0.93169 0.62759 0.30303 0.22472 0.59972 0.46214 0.88335 0.72002 0.28328 0.25823 0.55775 0.53234 0.81422 0.83114 0.12735 0.15064 0.25294 0.30445 0.37112 0.4699 0.121 0.17321 0.22613 0.31679 0.34431 0.5588l0.024 0.04868c0.1524 0.31291 0.0229 0.69039-0.29034 0.84349-0.31291 0.15275-0.69074 0.02293-0.84349-0.29034-0.0307-0.0628-0.0504-0.13123-0.0589-0.1972" fill="#333"/>
<path d="m95.352 84.296c0.26882 0.25082 0.65476 0.52317 1.01 0.76235 0.37218 0.2353 0.74965 0.4692 1.1483 0.67063 0.78387 0.42616 1.6192 0.76376 2.4631 1.0809 1.7 0.6096 3.4872 0.9913 5.2931 1.2354l1.36 0.16087 1.3695 0.08185 0.6858 0.03986 2.063-0.001059c0.91687-0.02646 1.8334-0.10054 2.752-0.14887l2.7436-0.31821 3e-3 -3.52e-4 0.0579 0.04551-0.043 0.0575-2.733 0.46002c-0.91933 0.0956-1.8376 0.21696-2.7612 0.29139l-1.3885 0.07197-0.69533 0.03598-0.69638-0.0049-1.3949-0.012c-0.46426-0.02328-0.92816-0.06244-1.3935-0.09278-1.856-0.15487-3.714-0.45156-5.5196-0.99624-0.89782-0.2854-1.7932-0.59514-2.6536-1.0065-0.43498-0.19332-0.85549-0.42333-1.2746-0.66005-0.42086-0.25682-0.80962-0.48966-1.2361-0.84631-0.26247-0.21908-0.29739-0.60925-0.07796-0.87171 0.21908-0.26211 0.60925-0.29704 0.87171-0.07796l0.02364 0.02081 0.02328 0.02187" fill="#333"/>
<path d="m86.796 83.769c-0.1464 0.44027-0.30586 0.81068-0.43462 1.1599-0.13123 0.3489-0.23707 0.66781-0.30304 0.9839-0.06879 0.31715-0.08467 0.63641-0.03634 0.99201 0.0063 0.18203 0.06421 0.36089 0.09596 0.56339 0.04233 0.19897 0.11889 0.39229 0.15875 0.629l0.0025 0.01552c0.0092 0.05468-0.02716 0.10619-0.08184 0.11501l-0.06138-0.0088c-0.4191-0.21061-0.80292-0.53552-1.0389-0.98637-0.25859-0.43639-0.35666-0.99413-0.28222-1.5134 0.06526-0.52317 0.28998-1.0051 0.60819-1.3762 0.32526-0.36724 0.7179-0.65652 1.2174-0.76835 0.07444-0.01658 0.14817 0.03034 0.16439 0.10442l-0.0032 0.07338-0.0056 0.01658" fill="#333"/>
<path d="m118.31 70.549c0.2995 0.133 0.67874 0.242 0.93062 0.0321 0.10443-0.08678 0.16581-0.2159 0.20109-0.34713 0.085-0.31926 0.0254-0.6738-0.15946-0.94756-0.4131-0.61136-2.3742-1.9018-3.1549-1.3974-1.4743 0.95285 1.5469 2.3784 2.1826 2.6599" fill="#adadad"/>
<path d="m101.87 70.549c-0.30021 0.133-0.6791 0.242-0.93098 0.0321-0.10478-0.08678-0.16581-0.2159-0.20073-0.34713-0.0854-0.31926-0.0258-0.6738 0.15945-0.94756 0.41275-0.61136 2.3738-1.9018 3.1545-1.3974 1.4746 0.95285-1.5469 2.3784-2.1823 2.6599" fill="#adadad"/>
<path d="m105.53 56.272c0.0889-0.4699 0.21907-0.82938 0.36759-1.2199 0.15734-0.37677 0.32738-0.74471 0.53023-1.0926 0.39934-0.69815 0.87559-1.3437 1.4231-1.9135 0.5581-0.55845 1.1458-1.0809 1.8059-1.4937 0.31221-0.23036 0.66746-0.39405 0.99766-0.58984 0.34148-0.17745 0.69744-0.32491 1.0428-0.48719-0.32244 0.20849-0.65229 0.4004-0.96273 0.61912-0.2981 0.23707-0.61878 0.43991-0.89112 0.70414-0.58103 0.48189-1.0707 1.0569-1.5184 1.6443-0.43709 0.59866-0.79022 1.2488-1.0622 1.9209-0.1397 0.33514-0.24447 0.68121-0.3369 1.0262-0.0815 0.3369-0.1524 0.7172-0.1651 1.0051l-7.1e-4 0.01905c-0.0152 0.34255-0.30515 0.60784-0.64735 0.59267-0.34254-0.01482-0.60783-0.3048-0.59266-0.64699l0.01-0.08784" fill="#333"/>
<path d="m107.74 56.074c0.127-0.32914 0.26176-0.52493 0.4191-0.756 0.15839-0.21661 0.32737-0.42016 0.51576-0.60043 0.37041-0.36689 0.79092-0.66252 1.2298-0.90029 0.44415-0.23072 0.90593-0.40252 1.3744-0.5214 0.23248-0.06526 0.47308-0.09631 0.7052-0.14499l0.70838-0.07726-0.66886 0.22684c-0.21379 0.09701-0.43251 0.17533-0.63677 0.28504-0.4124 0.20849-0.79586 0.45896-1.1377 0.74507-0.33619 0.29316-0.63041 0.62018-0.85936 0.9779-0.11818 0.17604-0.21238 0.36477-0.29422 0.55174-0.0744 0.17674-0.14887 0.4057-0.1591 0.52634-0.0289 0.34502-0.33197 0.60113-0.67734 0.5722-0.34501-0.02893-0.60148-0.33232-0.5722-0.67733 5e-3 -0.05997 0.0183-0.11712 0.0384-0.17074l0.0145-0.03669" fill="#333"/>
<path d="m110.48 55.786c0.38065-0.12277 0.70238-0.18168 1.0513-0.2413 0.34184-0.05468 0.68262-0.09454 1.0227-0.11677 0.67945-0.0448 1.3533-0.02928 2.0126 0.04022-0.64947 0.13617-1.2785 0.32526-1.8782 0.56339-0.29986 0.11889-0.59161 0.25259-0.87383 0.39652-0.27446 0.14146-0.56938 0.30727-0.78176 0.46426-0.27834 0.20638-0.67169 0.14781-0.87771-0.13088-0.20637-0.2787-0.14781-0.67204 0.13053-0.87842 0.0557-0.04127 0.11606-0.07197 0.17886-0.09243l0.0155-0.0046" fill="#333"/>
<path d="m111.36 77.046c0 0.39829-0.85125 0.72108-1.9011 0.72108s-1.9008-0.32279-1.9008-0.72108c0-0.39829 0.8509-0.72108 1.9008-0.72108s1.9011 0.32279 1.9011 0.72108" fill="#fff"/>
</g>
</svg>
