<?xml version="1.0" encoding="UTF-8" standalone="no"?>
<!-- Created with Inkscape (http://www.inkscape.org/) -->

<svg
   width="58.090752mm"
   height="58.663387mm"
   viewBox="0 0 58.090752 58.663387"
   version="1.1"
   id="svg672"
   inkscape:version="1.1.2 (0a00cf5339, 2022-02-04)"
   sodipodi:docname="kid-toys-logo.svg"
   xmlns:inkscape="http://www.inkscape.org/namespaces/inkscape"
   xmlns:sodipodi="http://sodipodi.sourceforge.net/DTD/sodipodi-0.dtd"
   xmlns="http://www.w3.org/2000/svg"
   xmlns:svg="http://www.w3.org/2000/svg">
  <sodipodi:namedview
     id="namedview674"
     pagecolor="#ffffff"
     bordercolor="#666666"
     borderopacity="1.0"
     inkscape:pageshadow="2"
     inkscape:pageopacity="0.0"
     inkscape:pagecheckerboard="0"
     inkscape:document-units="mm"
     showgrid="false"
     inkscape:zoom="2.0731362"
     inkscape:cx="105.87824"
     inkscape:cy="124.20795"
     inkscape:window-width="1920"
     inkscape:window-height="1008"
     inkscape:window-x="0"
     inkscape:window-y="0"
     inkscape:window-maximized="1"
     inkscape:current-layer="g925" />
  <defs
     id="defs669" />
  <g
     inkscape:label="Layer 1"
     inkscape:groupmode="layer"
     id="layer1">
    <g
       id="g925"
       transform="translate(-80.754625,-49.475824)">
      <path
         d="m 131.3985,60.036579 c 0,-3.538714 -2.86879,-6.407503 -6.4075,-6.407503 -3.30377,0 -6.02122,2.500136 -6.36835,5.711119 -2.41829,-1.304925 -5.58906,-2.205213 -9.78605,-2.335388 0,0 -4.1582,-0.448028 -8.2737,1.821744 -0.56621,-2.959453 -3.165124,-5.197475 -6.290029,-5.197475 -3.538714,0 -6.407503,2.868789 -6.407503,6.407503 0,3.496027 2.800703,6.332713 6.28015,6.401505 -0.586317,1.508831 -1.040694,3.256139 -1.314097,5.279319 -2.18687,16.203789 9.245249,18.192045 22.864589,16.402756 13.61898,-1.789289 11.73021,-13.022792 11.03418,-16.005175 -0.25083,-1.075972 -0.57079,-3.278364 -1.62313,-5.676547 3.48474,-0.06279 6.29144,-2.902303 6.29144,-6.401858"
         style="fill:#e4e4e4;fill-opacity:1;fill-rule:nonzero;stroke:none;stroke-width:0.0352778"
         id="path16" />
      <path
         d="m 109.68115,106.90275 v -0.0134 c -5.04332,-0.20567 -7.91175,-2.67371 -7.91175,-2.67371 -7.030157,-2.6864 -4.47781,-11.73162 -4.47781,-11.73162 l -8.149519,-3.044825 c -1.168753,0.206375 -2.05352,-0.01482 -2.684992,-0.477309 -0.09102,0.05292 -0.18803,0.09737 -0.295275,0.122414 l -2.350558,0.544336 c -0.579614,0.134409 -1.163461,-0.230011 -1.297517,-0.809272 -0.134408,-0.579261 0.230011,-1.163461 0.809273,-1.297516 l 1.981199,-0.458964 c -0.01764,-0.08361 -0.0321,-0.16757 -0.0441,-0.252589 l -2.244019,-0.118181 c -0.594078,-0.0314 -1.054453,-0.543278 -1.023056,-1.137003 0.0314,-0.594077 0.542925,-1.054099 1.137003,-1.022702 l 2.399594,0.126647 c 0.02716,-0.06421 0.05645,-0.126647 0.08714,-0.188031 l -1.773767,-1.110544 c -0.504119,-0.315736 -0.658283,-0.986367 -0.342547,-1.490486 0.315736,-0.50412 0.986366,-0.658283 1.490486,-0.342547 l 2.045053,1.280583 c 0.113241,0.07091 0.206375,0.161925 0.282927,0.262819 0.694267,-0.06703 1.241073,0.323498 1.241073,0.323498 0.01023,-0.05891 0.02081,-0.11677 0.03175,-0.173214 0.687916,-3.593042 2.211916,-2.326217 2.520244,-1.79705 0.313619,0.53728 -0.447675,2.507544 -0.447675,2.507544 l 9.537703,3.537656 9.59802,0.309386 9.59803,-0.309386 9.5377,-3.537656 c 0,0 -0.7613,-1.970264 -0.44768,-2.507544 0.30868,-0.529167 1.83233,-1.795992 2.52025,1.79705 0.0106,0.05644 0.0215,0.1143 0.0317,0.173214 0,0 0.5468,-0.390525 1.24142,-0.323498 0.0762,-0.100894 0.16933,-0.191911 0.28258,-0.262819 l 2.04505,-1.280583 c 0.50412,-0.315736 1.17475,-0.161573 1.49048,0.342547 0.31539,0.504119 0.16158,1.17475 -0.34254,1.490486 l -1.77342,1.110544 c 0.0303,0.06138 0.0596,0.123825 0.0868,0.188031 l 2.39994,-0.126647 c 0.59373,-0.0314 1.10526,0.428625 1.1363,1.022702 0.0317,0.593725 -0.42862,1.105606 -1.02235,1.137003 l -2.24437,0.118181 c -0.012,0.08502 -0.0268,0.16898 -0.0437,0.252589 l 1.98085,0.458964 c 0.57926,0.134055 0.94368,0.718255 0.80963,1.297516 -0.13441,0.579261 -0.71826,0.943681 -1.29787,0.809272 L 133.43826,89.0843 c -0.1076,-0.02505 -0.20426,-0.0695 -0.29528,-0.122414 -0.63147,0.462492 -1.51624,0.683684 -2.68464,0.477309 l -8.14987,3.044825 c 0,0 2.55235,9.04522 -4.47745,11.73162 0,0 -2.86844,2.46804 -7.9121,2.67371 v 0.0134 h -0.23777"
         style="fill:#e4e4e4;fill-opacity:1;fill-rule:nonzero;stroke:none;stroke-width:0.0352778"
         id="path18" />
      <path
         d="m 136.19134,81.309784 c 0,0 -0.76906,2.284941 -2.57881,2.737203 l 0.33937,0.58808 2.32975,-0.814211 c 0,0 0.83679,-1.560689 -0.0903,-2.511072"
         style="fill:#adadad;fill-opacity:1;fill-rule:nonzero;stroke:none;stroke-width:0.0352778"
         id="path20" />
      <path
         d="m 138.00073,85.20057 c 0,0 -1.31162,1.063272 -3.57364,0.95003 l -0.2487,0.7239 3.03071,0.49777 0.79163,-2.1717"
         style="fill:#adadad;fill-opacity:1;fill-rule:nonzero;stroke:none;stroke-width:0.0352778"
         id="path22" />
      <path
         d="m 137.50332,88.706828 c 0,0 -1.0407,1.153583 -4.09434,-0.09066 0,0 -1.42487,0.882297 -2.80494,0.203553 0,0 -9.61354,4.411133 -12.62239,4.592108 l 1.35749,2.307167 c 0,0 3.66466,-2.963333 7.41927,-4.297539 3.75532,-1.334911 3.73239,-1.2446 3.73239,-1.2446 0,0 2.0133,0.430036 2.80529,-0.519994 0,0 3.73239,1.606197 4.20723,-0.950031"
         style="fill:#adadad;fill-opacity:1;fill-rule:nonzero;stroke:none;stroke-width:0.0352778"
         id="path24" />
      <path
         d="m 100.5629,58.826551 c 0,0 8.54251,-2.07645 18.05975,0.513644 0,0 -10.54241,-6.409619 -18.05975,-0.513644"
         style="fill:#ffffff;fill-opacity:1;fill-rule:nonzero;stroke:none;stroke-width:0.0352778"
         id="path26" />
      <path
         d="m 83.48281,81.309784 c 0,0 0.769408,2.284941 2.578805,2.737203 l -0.339019,0.58808 -2.330097,-0.814211 c 0,0 -0.837142,-1.560689 0.09031,-2.511072"
         style="fill:#adadad;fill-opacity:1;fill-rule:nonzero;stroke:none;stroke-width:0.0352778"
         id="path28" />
      <path
         d="m 81.673413,85.20057 c 0,0 1.31198,1.063272 3.573991,0.95003 l 0.248709,0.7239 -3.031067,0.49777 -0.791633,-2.1717"
         style="fill:#adadad;fill-opacity:1;fill-rule:nonzero;stroke:none;stroke-width:0.0352778"
         id="path30" />
      <path
         d="m 82.171182,88.706828 c 0,0 1.040342,1.153583 4.094339,-0.09066 0,0 1.424869,0.882297 2.804583,0.203553 0,0 9.6139,4.411133 12.622386,4.592108 l -1.35749,2.307167 c 0,0 -3.664299,-2.963333 -7.419265,-4.297539 -3.754967,-1.334911 -3.732389,-1.2446 -3.732389,-1.2446 0,0 -2.01295,0.430036 -2.804936,-0.519994 0,0 -3.732389,1.606197 -4.207228,-0.950031"
         style="fill:#adadad;fill-opacity:1;fill-rule:nonzero;stroke:none;stroke-width:0.0352778"
         id="path32" />
      <path
         d="m 127.02123,71.315237 c 0,0 -0.14534,11.854038 -7.49053,15.926505 0,0 10.69058,-2.254603 7.49053,-15.926505"
         style="fill:#adadad;fill-opacity:1;fill-rule:nonzero;stroke:none;stroke-width:0.0352778"
         id="path34" />
      <path
         d="m 92.549551,71.460581 c 0,0 -0.290689,15.4178 15.563149,17.162992 0,0 -13.235874,0.509058 -15.272107,-8.072614 0,0 -1.454503,-5.090583 -0.291042,-9.090378"
         style="fill:#adadad;fill-opacity:1;fill-rule:nonzero;stroke:none;stroke-width:0.0352778"
         id="path36" />
      <path
         d="m 133.03644,83.517467 c 0.49954,0.112183 0.89218,0.401108 1.21674,0.768703 0.31891,0.370769 0.54327,0.852664 0.60854,1.375833 0.0748,0.519642 -0.0233,1.077383 -0.28223,1.51377 -0.236,0.450497 -0.62018,0.775758 -1.03857,0.986013 -0.0497,0.02469 -0.10972,0.0046 -0.13441,-0.04445 l -0.009,-0.06174 0.002,-0.01517 c 0.0402,-0.237067 0.11677,-0.430036 0.1591,-0.629356 0.0318,-0.202494 0.0896,-0.381 0.096,-0.563033 0.048,-0.3556 0.0325,-0.674864 -0.0363,-0.992364 -0.066,-0.316442 -0.17216,-0.635 -0.30304,-0.983544 -0.12911,-0.349603 -0.28857,-0.72002 -0.43497,-1.160286 l -0.005,-0.01623 c -0.024,-0.07232 0.0152,-0.150283 0.0875,-0.174272 l 0.0737,-0.0039"
         style="fill:#333333;fill-opacity:1;fill-rule:nonzero;stroke:none;stroke-width:0.0352778"
         id="path38" />
      <path
         d="m 117.31243,103.87874 c 0.44062,-0.82197 0.83679,-1.75436 1.11302,-2.67335 0.28328,-0.92533 0.46214,-1.87219 0.48471,-2.811637 0.0169,-0.469547 -0.0226,-0.934861 -0.1023,-1.390297 -0.0748,-0.456848 -0.1972,-0.90417 -0.37994,-1.32962 -0.0801,-0.217664 -0.19791,-0.418041 -0.30022,-0.627239 -0.12876,-0.194027 -0.23001,-0.405694 -0.36089,-0.603602 -0.22966,-0.419806 -0.50094,-0.81915 -0.71825,-1.333853 l -0.004,-0.0099 c -0.0381,-0.09066 0.004,-0.195439 0.0949,-0.233539 0.0406,-0.01693 0.0843,-0.01799 0.12312,-0.0056 1.09291,0.345016 1.85385,1.272116 2.32622,2.285647 0.51223,1.008944 0.72848,2.150533 0.7366,3.260372 -0.004,1.113014 -0.2032,2.205208 -0.54787,3.231798 -0.16616,0.51576 -0.38029,1.01247 -0.61418,1.49683 -0.23813,0.48966 -0.48366,0.94545 -0.81386,1.41817 -0.19544,0.28011 -0.58103,0.3489 -0.86078,0.15311 -0.26,-0.18133 -0.33796,-0.52635 -0.19121,-0.79905 l 0.0152,-0.0282"
         style="fill:#333333;fill-opacity:1;fill-rule:nonzero;stroke:none;stroke-width:0.0352778"
         id="path40" />
      <path
         d="m 101.28539,104.60123 c -0.35454,-0.45508 -0.62054,-0.88582 -0.86784,-1.36102 -0.24941,-0.46637 -0.463546,-0.95144 -0.637818,-1.45203 -0.343253,-1.00189 -0.547159,-2.066924 -0.532695,-3.139722 -0.01235,-0.536575 0.08749,-1.068563 0.167923,-1.595613 0.146755,-0.515409 0.260702,-1.039284 0.498122,-1.51765 0.114648,-0.238831 0.188028,-0.498475 0.338668,-0.717198 0.13582,-0.22613 0.27763,-0.449086 0.4258,-0.665338 0.13582,-0.225425 0.33796,-0.401462 0.52247,-0.586317 0.18944,-0.181328 0.38593,-0.353483 0.59795,-0.505883 0.0741,-0.05292 0.17675,-0.03563 0.23001,0.0381 0.0318,0.04445 0.0385,0.09948 0.0222,0.147813 l -0.008,0.02328 c -0.16863,0.497416 -0.43427,0.89923 -0.63288,1.335264 -0.19403,0.436739 -0.43921,0.841022 -0.57186,1.293988 -0.18732,0.432506 -0.25294,0.89782 -0.35771,1.349023 -0.0385,0.46355 -0.10231,0.923219 -0.061,1.387827 0.0339,0.924278 0.21625,1.848206 0.54751,2.726626 0.32138,0.86889 0.77611,1.74731 1.28658,2.46838 l 0.024,0.0335 c 0.1972,0.27869 0.13123,0.66428 -0.14711,0.86148 -0.27023,0.19156 -0.64241,0.13406 -0.84455,-0.12453"
         style="fill:#333333;fill-opacity:1;fill-rule:nonzero;stroke:none;stroke-width:0.0352778"
         id="path42" />
      <path
         d="m 99.81254,97.922442 c -0.879828,-0.338314 -1.869369,-0.36195 -2.874786,-0.197203 0.313972,2.497311 1.488017,5.212641 4.831646,6.490401 0,0 2.86843,2.46804 7.91175,2.67371 v 0.0134 h 0.23777 v -0.0134 c 5.04366,-0.20567 7.9121,-2.67371 7.9121,-2.67371 2.76331,-1.05586 4.04283,-3.09456 4.58188,-5.180184 l -2.72839,-1.113014 c -13.48881,-5.48005 -19.87197,0 -19.87197,0"
         style="fill:#ffffff;fill-opacity:1;fill-rule:nonzero;stroke:none;stroke-width:0.0352778"
         id="path44" />
      <path
         d="m 101.86218,102.10921 -0.99166,1.69615 c 0.28222,0.14782 0.5775,0.28787 0.89888,0.41028 0,0 2.86843,2.46804 7.91175,2.67371 v 0.0134 h 0.23777 v -0.0134 c 5.04366,-0.20567 7.9121,-2.67371 7.9121,-2.67371 0.0684,-0.0261 0.13194,-0.0554 0.19861,-0.0829 l -0.76553,-2.49202 c -8.63776,5.93196 -15.40192,0.46849 -15.40192,0.46849"
         style="fill:#e4f6fe;fill-opacity:1;fill-rule:nonzero;stroke:none;stroke-width:0.0352778"
         id="path46" />
      <path
         d="m 122.451,57.214357 c 0.0268,-0.03775 0.054,-0.07479 0.0818,-0.111478 0.94051,-1.234722 3.07728,-1.476375 3.58528,0.30233 0.17956,0.629356 -0.0829,1.0795 -0.26917,1.630186 0.508,-0.146755 1.12995,-0.142875 1.65206,-0.0635 0.5969,0.09066 1.17052,0.42157 1.46473,0.962025 0.28857,0.529873 0.20955,1.159581 -0.13229,1.643239 -1.12712,1.59385 -3.30447,1.956153 -5.07859,1.511653 -1.07985,-0.270581 -1.97097,-0.814211 -2.17487,-1.986844 -0.22084,-1.268942 0.11677,-2.822575 0.87101,-3.887611"
         style="fill:#fcdcea;fill-opacity:1;fill-rule:nonzero;stroke:none;stroke-width:0.0352778"
         id="path48" />
      <path
         d="m 97.250668,57.214357 c -0.02681,-0.03775 -0.05398,-0.07479 -0.08185,-0.111478 -0.940505,-1.234722 -3.07728,-1.476375 -3.58528,0.30233 -0.179564,0.629356 0.0829,1.0795 0.268817,1.630186 -0.507648,-0.146755 -1.129948,-0.142875 -1.651706,-0.0635 -0.5969,0.09066 -1.170517,0.42157 -1.465086,0.962025 -0.288219,0.529873 -0.209197,1.159581 0.132644,1.643239 1.127125,1.59385 3.30447,1.956153 5.078942,1.511653 1.0795,-0.270581 1.970617,-0.814211 2.174522,-1.986844 0.220839,-1.268942 -0.116416,-2.822575 -0.871008,-3.887611"
         style="fill:#fcdcea;fill-opacity:1;fill-rule:nonzero;stroke:none;stroke-width:0.0352778"
         id="path50" />
      <path
         d="m 106.30788,76.470378 c 1.14547,-0.44203 3.38738,-0.942622 6.64281,-0.04762 0.60748,0.166864 0.96943,0.80257 0.80433,1.410759 -0.35031,1.28905 -1.29857,3.354211 -3.83575,4.179711 -0.15099,0.04904 -0.3115,0.06597 -0.46955,0.04939 -0.76941,-0.07937 -2.98414,-0.623712 -3.84669,-4.219223 -0.13687,-0.5715 0.15664,-1.161344 0.70485,-1.373011"
         style="fill:#333333;fill-opacity:1;fill-rule:nonzero;stroke:none;stroke-width:0.0352778"
         id="path52" />
      <path
         d="m 109.8339,85.98797 c -4.03084,0 -4.14373,-2.657475 -4.14444,-2.684286 -0.005,-0.204964 0.15664,-0.375003 0.3616,-0.380295 l 0.009,-3.52e-4 c 0.20003,0 0.36478,0.15875 0.37113,0.359127 0.004,0.0822 0.12559,1.963561 3.40254,1.963561 1.26965,0 2.20415,-0.291041 2.70298,-0.84208 0.45403,-0.502356 0.41205,-1.0668 0.41134,-1.072445 -0.0205,-0.203905 0.12841,-0.385586 0.33196,-0.406047 0.20638,-0.02222 0.3863,0.128059 0.4064,0.332317 0.004,0.03598 0.0808,0.892175 -0.60007,1.643944 -0.65193,0.720725 -1.7466,1.086556 -3.25261,1.086556"
         style="fill:#333333;fill-opacity:1;fill-rule:nonzero;stroke:none;stroke-width:0.0352778"
         id="path54" />
      <path
         d="m 114.69518,75.799748 c 0.16898,-0.412397 0.43321,-0.731308 0.79128,-0.998714 0.35277,-0.263525 0.82232,-0.439208 1.31198,-0.431094 0.48436,0.0127 0.95885,0.180269 1.29998,0.455083 0.18415,0.123472 0.31503,0.2921 0.46179,0.440266 0.11924,0.168628 0.23036,0.339373 0.32173,0.518584 0.0762,0.149578 0.0169,0.332669 -0.13299,0.408869 -0.0875,0.0448 -0.18627,0.04304 -0.26882,0.0039 l -0.0448,-0.02187 c -0.16581,-0.08043 -0.30833,-0.173567 -0.44944,-0.261056 -0.14958,-0.06456 -0.28399,-0.155575 -0.42122,-0.206375 -0.27446,-0.122767 -0.52634,-0.168628 -0.76976,-0.17145 -0.24236,-0.0018 -0.49424,0.05997 -0.76588,0.172861 -0.26529,0.113242 -0.5581,0.286103 -0.83855,0.450145 l -0.0487,0.02857 c -0.14887,0.08714 -0.34008,0.03704 -0.42686,-0.111478 -0.0511,-0.08678 -0.0547,-0.189795 -0.0198,-0.276225"
         style="fill:#333333;fill-opacity:1;fill-rule:nonzero;stroke:none;stroke-width:0.0352778"
         id="path56" />
      <path
         d="m 104.91794,76.134181 c -0.27728,-0.177447 -0.57115,-0.357011 -0.8449,-0.472369 -0.2794,-0.115006 -0.54152,-0.176389 -0.79375,-0.167217 -0.24977,0.02011 -0.50765,0.06068 -0.78141,0.192617 -0.0727,0.01834 -0.13864,0.06315 -0.20778,0.100894 l -0.21872,0.106539 c -0.14323,0.08678 -0.28752,0.179564 -0.45932,0.256469 l -0.0381,0.01693 c -0.13617,0.06068 -0.29563,-3.53e-4 -0.35631,-0.136172 -0.0332,-0.07408 -0.0296,-0.156281 0.002,-0.224367 0.0854,-0.182739 0.19473,-0.353483 0.31185,-0.522817 0.14288,-0.150283 0.27552,-0.31503 0.4565,-0.439561 0.34184,-0.265641 0.81068,-0.438503 1.28799,-0.433564 0.48013,-7.05e-4 0.93945,0.174978 1.28411,0.436034 0.34925,0.265289 0.61278,0.57785 0.78493,0.976841 0.0589,0.136172 -0.004,0.294217 -0.14005,0.352778 -0.0843,0.03634 -0.1771,0.02611 -0.24942,-0.0194 l -0.0374,-0.02364"
         style="fill:#333333;fill-opacity:1;fill-rule:nonzero;stroke:none;stroke-width:0.0352778"
         id="path58" />
      <path
         d="m 126.5344,83.503003 c 0.25365,-0.399344 0.47695,-0.808214 0.67204,-1.221669 0.0342,0.30868 0.0998,0.618772 0.17674,0.906991 z M 92.212649,83.186562 c 0.154516,-0.579614 0.209197,-1.024114 0.210255,-1.365603 0.250472,0.625828 0.543278,1.215672 0.879122,1.769886 z M 124.991,52.392237 c -3.33375,0 -6.19831,2.127603 -7.2323,5.161139 -2.52377,-1.076325 -5.49028,-1.675342 -8.84344,-1.783644 -0.12946,-0.01164 -0.47448,-0.03775 -0.98283,-0.03775 -1.38289,0 -3.91654,0.191911 -6.61071,1.349023 -1.16875,-2.79012 -3.925002,-4.68877 -7.048849,-4.68877 -4.214989,0 -7.644342,3.429353 -7.644342,7.644342 0,3.568347 2.508603,6.611055 5.855406,7.425619 -0.388409,1.271411 -0.682625,2.640894 -0.878064,4.089753 -0.468136,3.469216 -0.343606,6.457244 0.369711,8.954911 -0.363361,-0.449439 -1.018117,-0.973314 -1.8796,-0.973314 -1.095022,-3.53e-4 -1.900414,0.747536 -2.402769,2.226733 l -7.06e-4,-7.06e-4 -2.045053,-1.280583 c -0.3683,-0.230717 -0.792691,-0.352425 -1.227666,-0.352425 -0.805745,0 -1.541286,0.4064 -1.967442,1.086908 -0.328083,0.523875 -0.432506,1.145117 -0.293511,1.749425 0.03669,0.159456 0.08925,0.312562 0.155928,0.457906 -0.868186,0.300214 -1.505656,1.102431 -1.556809,2.069042 -0.03281,0.617008 0.1778,1.210733 0.592667,1.671813 0.07197,0.08008 0.148167,0.154164 0.228953,0.222603 -0.298097,0.497417 -0.411692,1.105959 -0.270934,1.714147 0.244828,1.056923 1.174045,1.795286 2.259895,1.795286 0.174978,0 0.350661,-0.02046 0.521758,-0.05997 l 2.226733,-0.515761 c 0.587728,0.289631 1.252362,0.435681 1.984375,0.435681 0.228953,0 0.464962,-0.01482 0.706262,-0.0441 l 6.834363,2.553406 c -0.69603,3.711575 -0.300919,9.768419 5.300844,12.035719 0.73836,0.56797 3.66042,2.57987 8.30438,2.81834 0.0759,0.0148 0.15417,0.0222 0.2339,0.0222 h 0.23777 c 0.0811,0 0.16051,-0.007 0.23742,-0.0226 4.64149,-0.23918 7.56285,-2.25002 8.30051,-2.81799 5.60211,-2.2673 5.99686,-8.324144 5.30083,-12.035719 l 6.83472,-2.553406 c 0.24095,0.02928 0.47731,0.0441 0.70591,0.0441 0.73237,0 1.397,-0.14605 1.98473,-0.435681 l 2.22673,0.515761 c 0.1711,0.03951 0.34678,0.05997 0.52176,0.05997 1.08585,0 2.01506,-0.738363 2.25989,-1.795286 0.14076,-0.608188 0.0272,-1.21673 -0.27093,-1.714147 0.0808,-0.06844 0.15699,-0.142522 0.2293,-0.222603 0.41452,-0.46108 0.62477,-1.054805 0.59232,-1.671813 -0.0508,-0.966611 -0.68862,-1.768828 -1.55716,-2.069042 0.0674,-0.145344 0.11959,-0.29845 0.15628,-0.457906 0.13899,-0.604308 0.0346,-1.22555 -0.29351,-1.749425 -0.42616,-0.680508 -1.16135,-1.086908 -1.96744,-1.086908 -0.43463,0 -0.85902,0.121708 -1.22732,0.352425 l -2.04505,1.280583 -10e-4,7.06e-4 c -0.50271,-1.478844 -1.30775,-2.226733 -2.40277,-2.226733 -0.63182,0 -1.15252,0.281869 -1.52859,0.6096 0.8816,-3.388078 0.3228,-6.752167 -0.0406,-8.309328 -0.0455,-0.19438 -0.0928,-0.427919 -0.14747,-0.693561 -0.19191,-0.935919 -0.45684,-2.230614 -0.95885,-3.68935 3.32282,-0.831497 5.80637,-3.8608 5.80637,-7.41433 0,-4.214989 -3.429,-7.644342 -7.64398,-7.644342 z m 0,1.236839 c 3.53871,0 6.4075,2.868789 6.4075,6.407503 0,3.499555 -2.8067,6.339063 -6.29144,6.401858 1.05234,2.398183 1.3723,4.600575 1.62313,5.676547 0.63888,2.73685 2.27224,12.415661 -7.98513,15.375114 l 0.653,-0.02081 9.5377,-3.537656 c 0,0 -0.7613,-1.970264 -0.44768,-2.507544 0.14358,-0.246592 0.55175,-0.65405 1.016,-0.653697 0.53164,0 1.137,0.5334 1.50425,2.450747 0.0106,0.05644 0.0215,0.1143 0.0317,0.173214 0,0 0.46355,-0.331259 1.0795,-0.331259 0.0526,0 0.10653,0.0025 0.16192,0.0078 0.0762,-0.100894 0.16933,-0.191911 0.28258,-0.262819 l 2.04505,-1.280583 c 0.17745,-0.111125 0.37535,-0.164042 0.57115,-0.164042 0.36089,0 0.71472,0.179917 0.91933,0.506589 0.31539,0.504119 0.16158,1.17475 -0.34254,1.490486 l -1.77342,1.110544 c 0.0303,0.06138 0.0596,0.123825 0.0868,0.188031 l 2.39994,-0.126647 0.0572,-0.0014 c 0.56903,0 1.04881,0.449439 1.07915,1.024113 0.0317,0.593725 -0.42862,1.105606 -1.02235,1.137003 l -2.24437,0.118181 c -0.012,0.08502 -0.0268,0.16898 -0.0437,0.252589 l 1.98085,0.458964 c 0.57926,0.134055 0.94368,0.718255 0.80963,1.297516 -0.11536,0.498122 -0.56339,0.837142 -1.05516,0.837142 -0.0801,0 -0.16157,-0.0088 -0.24271,-0.02787 l -2.35062,-0.54439 c -0.1076,-0.02505 -0.20426,-0.0695 -0.29528,-0.122414 -0.47025,0.344312 -1.08091,0.55492 -1.84467,0.55492 -0.26176,0 -0.54187,-0.0247 -0.83997,-0.07761 l -8.14987,3.044825 c 0,0 2.55235,9.045219 -4.47745,11.731619 0,0 -2.86844,2.46804 -7.9121,2.67371 v 0.0134 h -0.23777 v -0.0134 c -5.04332,-0.20567 -7.91175,-2.67371 -7.91175,-2.67371 -7.030157,-2.6864 -4.47781,-11.731619 -4.47781,-11.731619 l -8.149519,-3.044825 c -0.298803,0.05292 -0.578556,0.07761 -0.84067,0.07761 -0.763411,0 -1.374069,-0.210608 -1.844322,-0.55492 -0.09102,0.05292 -0.18803,0.09737 -0.295275,0.122414 l -2.350558,0.544336 c -0.08149,0.01905 -0.162631,0.02787 -0.242711,0.02787 -0.49142,0 -0.939447,-0.33902 -1.054806,-0.837142 -0.134408,-0.579261 0.230011,-1.163461 0.809273,-1.297516 l 1.981199,-0.458964 c -0.01764,-0.08361 -0.0321,-0.16757 -0.0441,-0.252589 l -2.244019,-0.118181 c -0.594078,-0.0314 -1.054453,-0.543278 -1.023056,-1.137003 0.03034,-0.575027 0.51047,-1.024113 1.0795,-1.024113 l 0.0575,0.0014 2.399594,0.126647 c 0.02716,-0.06421 0.05645,-0.126647 0.08714,-0.188031 L 83.842993,83.36047 c -0.504119,-0.315736 -0.658283,-0.986367 -0.342547,-1.490486 0.204611,-0.327025 0.558447,-0.506589 0.919339,-0.506589 0.195791,0 0.3937,0.05292 0.571147,0.164042 l 2.045053,1.280583 c 0.113241,0.07091 0.206375,0.161925 0.282927,0.262819 0.05503,-0.0053 0.109009,-0.0078 0.161925,-0.0078 0.615598,0 1.079148,0.331259 1.079148,0.331259 0.01023,-0.05891 0.02081,-0.11677 0.03175,-0.173214 0.367241,-1.9177 0.972608,-2.4511 1.504244,-2.450747 0.463903,0 0.872419,0.407105 1.016,0.653697 0.313619,0.53728 -0.447675,2.507544 -0.447675,2.507544 l 8.848019,3.281539 C 94.48524,85.13067 91.642204,80.528684 92.831418,71.717353 c 0.273403,-2.02318 0.72778,-3.770488 1.314097,-5.279319 -3.479447,-0.06879 -6.28015,-2.905478 -6.28015,-6.401505 0,-3.538714 2.868789,-6.407503 6.407503,-6.407503 3.124905,0 5.723819,2.238022 6.290032,5.197475 2.95063,-1.627717 5.92314,-1.857728 7.36953,-1.857728 0.57079,0 0.90417,0.03598 0.90417,0.03598 4.19699,0.130175 7.36776,1.030463 9.78605,2.335388 0.34713,-3.210983 3.06458,-5.711119 6.36835,-5.711119"
         style="fill:#333333;fill-opacity:1;fill-rule:nonzero;stroke:none;stroke-width:0.0352778"
         id="path60" />
      <path
         d="m 125.48488,91.862425 v 0 c -0.46566,0 -0.92992,0.03669 -1.3783,0.109009 -1.24601,0.20073 -2.48955,0.739422 -3.59657,1.557866 -2.5721,1.901825 -4.13103,4.98475 -3.97122,7.85424 0.127,2.28107 1.34656,4.20406 3.43394,5.41479 1.16699,0.67628 2.49978,1.01918 3.9624,1.01918 3.75003,0 7.61718,-2.2913 9.19551,-5.44795 1.20685,-2.414413 0.93874,-4.987221 -0.75495,-7.244293 -1.50989,-2.012597 -4.15043,-3.262842 -6.89081,-3.262842 z m 0,1.237192 c 2.2405,-3.53e-4 4.55578,0.974019 5.90127,2.767894 3.88549,5.178429 -2.06093,10.712799 -7.45102,10.712799 -1.17651,0 -2.32622,-0.26352 -3.34186,-0.85231 -4.62174,-2.6797 -2.9838,-8.5157 0.65193,-11.203866 0.91546,-0.676981 1.95721,-1.154289 3.05788,-1.331737 0.3877,-0.06209 0.78352,-0.09278 1.1818,-0.09278"
         style="fill:#333333;fill-opacity:1;fill-rule:nonzero;stroke:none;stroke-width:0.0352778"
         id="path62" />
      <path
         d="m 121.2452,94.524134 c 0.91546,-0.676981 1.95721,-1.154289 3.05788,-1.331737 2.56857,-0.413808 5.49839,0.562681 7.08307,2.675114 4.73357,6.308729 -5.12586,13.146619 -10.79288,9.860489 -4.62174,-2.6797 -2.9838,-8.5157 0.65193,-11.203866"
         style="fill:#e4e4e4;fill-opacity:1;fill-rule:nonzero;stroke:none;stroke-width:0.0352778"
         id="path64" />
      <path
         d="m 120.59327,105.728 c 5.05671,2.93194 13.44189,-2.19639 11.82934,-7.8172 -3.98145,8.01934 -11.45857,6.74335 -13.70471,6.14574 0.44873,0.63112 1.06363,1.2005 1.87537,1.67146"
         style="fill:#adadad;fill-opacity:1;fill-rule:nonzero;stroke:none;stroke-width:0.0352778"
         id="path66" />
      <path
         d="m 128.82428,101.01771 c 0,2.10432 -1.70603,3.81036 -3.81,3.81036 -2.10432,0 -3.81035,-1.70604 -3.81035,-3.81036 0,-2.104315 1.70603,-3.809996 3.81035,-3.809996 2.10397,0 3.81,1.705681 3.81,3.809996"
         style="fill:#f379a7;fill-opacity:1;fill-rule:nonzero;stroke:none;stroke-width:0.0352778"
         id="path68" />
      <path
         d="m 127.41105,95.508383 c 0,0.751064 -0.60889,1.359606 -1.3596,1.359606 -0.75107,0 -1.35926,-0.608542 -1.35926,-1.359606 0,-0.750711 0.60819,-1.359605 1.35926,-1.359605 0.75071,0 1.3596,0.608894 1.3596,1.359605"
         style="fill:#f379a7;fill-opacity:1;fill-rule:nonzero;stroke:none;stroke-width:0.0352778"
         id="path70" />
      <path
         d="m 130.55959,97.046847 c 0,0.750711 -0.60889,1.359606 -1.35996,1.359606 -0.75071,0 -1.35925,-0.608895 -1.35925,-1.359606 0,-0.751064 0.60854,-1.359605 1.35925,-1.359605 0.75107,0 1.35996,0.608541 1.35996,1.359605"
         style="fill:#f379a7;fill-opacity:1;fill-rule:nonzero;stroke:none;stroke-width:0.0352778"
         id="path72" />
      <path
         d="m 131.91884,100.08744 c 0,0.75106 -0.60854,1.35996 -1.3596,1.35996 -0.75071,0 -1.35961,-0.6089 -1.35961,-1.35996 0,-0.750712 0.6089,-1.359254 1.35961,-1.359254 0.75106,0 1.3596,0.608542 1.3596,1.359254"
         style="fill:#f379a7;fill-opacity:1;fill-rule:nonzero;stroke:none;stroke-width:0.0352778"
         id="path74" />
      <path
         d="m 93.748996,91.718845 c -2.740378,0 -5.38092,1.249891 -6.890808,3.262841 -1.693687,2.257072 -1.961798,4.829881 -0.754945,7.244294 1.577975,3.15665 5.445125,5.44794 9.195153,5.44794 1.462969,0 2.796116,-0.34325 3.9624,-1.01952 2.087734,-1.21038 3.307294,-3.13302 3.434294,-5.41444 0.15981,-2.86949 -1.39912,-5.952415 -3.971222,-7.85424 -1.10737,-0.818445 -2.350911,-1.357489 -3.596217,-1.557867 -0.449086,-0.07232 -0.912636,-0.109008 -1.378655,-0.109008 z m 0,1.236839 c 0.398286,0 0.794103,0.03069 1.181805,0.09313 1.100314,0.177447 2.14242,0.654755 3.057525,1.331383 3.636084,2.68852 5.274024,8.524523 0.652286,11.204223 -1.015647,0.58879 -2.16535,0.85267 -3.342216,0.85267 -5.389386,0 -11.336161,-5.53473 -7.45102,-10.713162 1.345848,-1.793875 3.661128,-2.768247 5.90162,-2.768247"
         style="fill:#333333;fill-opacity:1;fill-rule:nonzero;stroke:none;stroke-width:0.0352778"
         id="path76" />
      <path
         d="m 97.988326,94.3802 c -0.915105,-0.676628 -1.957211,-1.153936 -3.057525,-1.331383 -2.568575,-0.413808 -5.498394,0.56268 -7.083425,2.675114 -4.733572,6.308729 5.126214,13.146619 10.793236,9.860489 4.621738,-2.6797 2.983798,-8.5157 -0.652286,-11.20422"
         style="fill:#e4e4e4;fill-opacity:1;fill-rule:nonzero;stroke:none;stroke-width:0.0352778"
         id="path78" />
      <path
         d="m 98.640612,105.58442 c 1.115484,-0.64699 1.863368,-1.47849 2.309638,-2.40453 -12.046304,4.12926 -13.150499,-5.038726 -13.242926,-7.248879 -4.369153,6.250169 5.328002,12.903549 10.933288,9.653409"
         style="fill:#adadad;fill-opacity:1;fill-rule:nonzero;stroke:none;stroke-width:0.0352778"
         id="path80" />
      <path
         d="m 90.409601,100.87413 c 0,2.10432 1.706034,3.81 3.81,3.81 2.10432,0 3.81,-1.70568 3.81,-3.81 0,-2.103963 -1.70568,-3.809997 -3.81,-3.809997 -2.103966,0 -3.81,1.706034 -3.81,3.809997"
         style="fill:#f379a7;fill-opacity:1;fill-rule:nonzero;stroke:none;stroke-width:0.0352778"
         id="path82" />
      <path
         d="m 91.822829,95.364803 c 0,0.750711 0.608542,1.359605 1.359606,1.359605 0.750711,0 1.359605,-0.608894 1.359605,-1.359605 0,-0.750711 -0.608894,-1.359606 -1.359605,-1.359606 -0.751064,0 -1.359606,0.608895 -1.359606,1.359606"
         style="fill:#f379a7;fill-opacity:1;fill-rule:nonzero;stroke:none;stroke-width:0.0352778"
         id="path84" />
      <path
         d="m 88.67464,96.903267 c 0,0.750711 0.608542,1.359253 1.359606,1.359253 0.750711,0 1.359605,-0.608542 1.359605,-1.359253 0,-0.751064 -0.608894,-1.359959 -1.359605,-1.359959 -0.751064,0 -1.359606,0.608895 -1.359606,1.359959"
         style="fill:#f379a7;fill-opacity:1;fill-rule:nonzero;stroke:none;stroke-width:0.0352778"
         id="path86" />
      <path
         d="m 87.315035,99.944211 c 0,0.750709 0.608541,1.359249 1.359605,1.359249 0.751064,0 1.359606,-0.60854 1.359606,-1.359249 0,-0.751064 -0.608542,-1.359958 -1.359606,-1.359958 -0.751064,0 -1.359605,0.608894 -1.359605,1.359958"
         style="fill:#f379a7;fill-opacity:1;fill-rule:nonzero;stroke:none;stroke-width:0.0352778"
         id="path88" />
      <path
         d="m 92.61411,67.033926 c 0.11818,-0.242006 0.223308,-0.385586 0.344664,-0.5588 0.117827,-0.165453 0.243416,-0.319264 0.370769,-0.4699 0.256469,-0.298803 0.530931,-0.572911 0.814211,-0.831145 0.283633,-0.25788 0.580319,-0.4953 0.883356,-0.720019 0.302683,-0.224367 0.616655,-0.430389 0.932038,-0.627592 l 0.04445,0.0099 -0.0042,0.03986 c -0.252589,0.271992 -0.497417,0.547864 -0.724958,0.835378 -0.227189,0.287514 -0.442031,0.58173 -0.636411,0.885119 -0.19297,0.303742 -0.37077,0.613128 -0.521406,0.928864 -0.07408,0.158397 -0.144286,0.316442 -0.202494,0.475192 -0.05609,0.149225 -0.118181,0.335491 -0.131234,0.437797 -0.04374,0.345722 -0.35948,0.590197 -0.705202,0.546453 -0.34537,-0.0441 -0.590198,-0.359834 -0.5461,-0.705203 0.0088,-0.06985 0.02858,-0.135114 0.0575,-0.195086 l 0.02505,-0.0508"
         style="fill:#333333;fill-opacity:1;fill-rule:nonzero;stroke:none;stroke-width:0.0352778"
         id="path90" />
      <path
         d="m 125.50288,67.438562 c -0.0127,-0.102306 -0.0748,-0.288572 -0.13088,-0.437797 -0.0582,-0.15875 -0.12912,-0.316795 -0.2032,-0.475192 -0.14994,-0.315736 -0.32774,-0.625122 -0.52106,-0.928864 -0.19473,-0.303389 -0.40922,-0.597605 -0.63641,-0.885119 -0.22754,-0.287514 -0.47237,-0.563386 -0.72496,-0.835378 l 7.1e-4,-0.04586 0.0399,-0.0039 c 0.31503,0.197203 0.62901,0.403225 0.93169,0.627592 0.30303,0.224719 0.59972,0.462139 0.88335,0.720019 0.28328,0.258234 0.55775,0.532342 0.81422,0.831145 0.12735,0.150636 0.25294,0.304447 0.37112,0.4699 0.121,0.173214 0.22613,0.316794 0.34431,0.5588 l 0.024,0.04868 c 0.1524,0.312914 0.0229,0.690386 -0.29034,0.843492 -0.31291,0.152753 -0.69074,0.02293 -0.84349,-0.290336 -0.0307,-0.0628 -0.0504,-0.131234 -0.0589,-0.197203"
         style="fill:#333333;fill-opacity:1;fill-rule:nonzero;stroke:none;stroke-width:0.0352778"
         id="path92" />
      <path
         d="m 95.352371,84.2964 c 0.268816,0.250825 0.654755,0.52317 1.010002,0.762353 0.372181,0.235303 0.749653,0.469195 1.148292,0.670631 0.783872,0.426155 1.61925,0.763764 2.463094,1.080911 1.700041,0.6096 3.487211,0.991305 5.293081,1.235428 l 1.35996,0.160866 1.36948,0.08185 0.6858,0.03986 0.68686,-3.53e-4 1.37618,-7.06e-4 c 0.91687,-0.02646 1.83339,-0.100541 2.75202,-0.148872 l 2.74356,-0.318206 0.003,-3.52e-4 0.0579,0.04551 -0.043,0.0575 -2.73297,0.460022 c -0.91933,0.0956 -1.83761,0.216958 -2.76119,0.291394 l -1.38853,0.07197 -0.69533,0.03598 -0.69638,-0.0049 -1.39488,-0.012 c -0.46426,-0.02328 -0.92816,-0.06244 -1.39347,-0.09278 -1.85597,-0.15487 -3.71405,-0.451556 -5.519565,-0.996245 -0.897819,-0.285397 -1.793169,-0.595136 -2.653594,-1.006475 -0.434975,-0.193322 -0.855486,-0.423333 -1.274586,-0.660047 -0.420864,-0.256822 -0.809625,-0.489656 -1.236134,-0.846314 -0.262466,-0.219075 -0.297391,-0.609247 -0.07796,-0.871714 0.219075,-0.262114 0.609248,-0.297039 0.871714,-0.07796 l 0.02364,0.02081 0.02328,0.02187"
         style="fill:#333333;fill-opacity:1;fill-rule:nonzero;stroke:none;stroke-width:0.0352778"
         id="path94" />
      <path
         d="m 86.796099,83.76935 c -0.146403,0.440267 -0.305859,0.810684 -0.434623,1.159934 -0.131233,0.348897 -0.237066,0.667808 -0.303036,0.983897 -0.06879,0.317147 -0.08467,0.636411 -0.03634,0.992011 0.0063,0.182033 0.06421,0.360892 0.09596,0.563386 0.04233,0.198967 0.118886,0.392289 0.15875,0.629003 l 0.0025,0.01552 c 0.0092,0.05468 -0.02716,0.106186 -0.08184,0.115006 l -0.06138,-0.0088 c -0.4191,-0.210608 -0.802922,-0.535516 -1.03893,-0.986366 -0.258586,-0.436387 -0.356658,-0.994128 -0.282222,-1.513417 0.06526,-0.523169 0.289983,-1.005064 0.608189,-1.376186 0.325261,-0.367242 0.717902,-0.65652 1.217436,-0.76835 0.07444,-0.01658 0.148166,0.03034 0.164394,0.104422 l -0.0032,0.07338 -0.0056,0.01658"
         style="fill:#333333;fill-opacity:1;fill-rule:nonzero;stroke:none;stroke-width:0.0352778"
         id="path96" />
      <path
         d="m 118.31468,70.548651 c 0.2995,0.132997 0.67874,0.242005 0.93062,0.0321 0.10443,-0.08678 0.16581,-0.2159 0.20109,-0.347133 0.085,-0.319264 0.0254,-0.673805 -0.15946,-0.947561 -0.4131,-0.611364 -2.37419,-1.901825 -3.15489,-1.397353 -1.47426,0.952853 1.54693,2.378428 2.18264,2.659945"
         style="fill:#adadad;fill-opacity:1;fill-rule:nonzero;stroke:none;stroke-width:0.0352778"
         id="path98" />
      <path
         d="m 101.86994,70.548651 c -0.30021,0.132997 -0.6791,0.242005 -0.93098,0.0321 -0.10478,-0.08678 -0.16581,-0.2159 -0.20073,-0.347133 -0.0854,-0.319264 -0.0258,-0.673805 0.15945,-0.947561 0.41275,-0.611364 2.37385,-1.901825 3.15454,-1.397353 1.47461,0.952853 -1.54693,2.378428 -2.18228,2.659945"
         style="fill:#adadad;fill-opacity:1;fill-rule:nonzero;stroke:none;stroke-width:0.0352778"
         id="path100" />
      <path
         d="m 105.53213,56.27244 c 0.0889,-0.4699 0.21907,-0.829381 0.36759,-1.219906 0.15734,-0.376766 0.32738,-0.744713 0.53023,-1.092552 0.39934,-0.698148 0.87559,-1.343731 1.4231,-1.913467 0.5581,-0.558447 1.14582,-1.080911 1.80587,-1.493661 0.31221,-0.230364 0.66746,-0.394053 0.99766,-0.589845 0.34148,-0.177447 0.69744,-0.324908 1.04281,-0.487186 -0.32244,0.208492 -0.65229,0.400403 -0.96273,0.619125 -0.2981,0.237067 -0.61878,0.439914 -0.89112,0.704145 -0.58103,0.481894 -1.07068,1.056922 -1.51836,1.644297 -0.43709,0.598664 -0.79022,1.248833 -1.06221,1.920875 -0.1397,0.335139 -0.24447,0.681214 -0.3369,1.02623 -0.0815,0.336903 -0.1524,0.717198 -0.1651,1.005064 l -7.1e-4,0.01905 c -0.0152,0.342548 -0.30515,0.607836 -0.64735,0.592667 -0.34254,-0.01482 -0.60783,-0.3048 -0.59266,-0.646994 l 0.01,-0.08784"
         style="fill:#333333;fill-opacity:1;fill-rule:nonzero;stroke:none;stroke-width:0.0352778"
         id="path102" />
      <path
         d="m 107.7444,56.074179 c 0.127,-0.329142 0.26176,-0.524934 0.4191,-0.756003 0.15839,-0.216606 0.32737,-0.420158 0.51576,-0.600428 0.37041,-0.366889 0.79092,-0.662516 1.22978,-0.900289 0.44415,-0.230716 0.90593,-0.402519 1.37442,-0.521405 0.23248,-0.06526 0.47308,-0.09631 0.7052,-0.144992 l 0.70838,-0.07726 -0.66886,0.226836 c -0.21379,0.09701 -0.43251,0.175331 -0.63677,0.285044 -0.4124,0.208492 -0.79586,0.458964 -1.13771,0.745067 -0.33619,0.293158 -0.63041,0.620183 -0.85936,0.9779 -0.11818,0.176036 -0.21238,0.364772 -0.29422,0.551744 -0.0744,0.176742 -0.14887,0.405695 -0.1591,0.526345 -0.0289,0.345017 -0.33197,0.601133 -0.67734,0.572205 -0.34501,-0.02893 -0.60148,-0.332316 -0.5722,-0.677333 0.005,-0.05997 0.0183,-0.117122 0.0384,-0.170744 l 0.0145,-0.03669"
         style="fill:#333333;fill-opacity:1;fill-rule:nonzero;stroke:none;stroke-width:0.0352778"
         id="path104" />
      <path
         d="m 110.4756,55.786312 c 0.38065,-0.122767 0.70238,-0.18168 1.05128,-0.2413 0.34184,-0.05468 0.68262,-0.09454 1.0227,-0.116769 0.67945,-0.0448 1.35326,-0.02928 2.0126,0.04022 -0.64947,0.136173 -1.27847,0.325261 -1.87819,0.563386 -0.29986,0.118887 -0.59161,0.252589 -0.87383,0.396523 -0.27446,0.141464 -0.56938,0.307269 -0.78176,0.464255 -0.27834,0.206375 -0.67169,0.147814 -0.87771,-0.13088 -0.20637,-0.278695 -0.14781,-0.672042 0.13053,-0.878417 0.0557,-0.04127 0.11606,-0.07197 0.17886,-0.09243 l 0.0155,-0.0046"
         style="fill:#333333;fill-opacity:1;fill-rule:nonzero;stroke:none;stroke-width:0.0352778"
         id="path106" />
      <path
         d="m 111.36319,77.046464 c 0,0.398287 -0.85125,0.721078 -1.90112,0.721078 -1.04987,0 -1.90077,-0.322791 -1.90077,-0.721078 0,-0.398286 0.8509,-0.721077 1.90077,-0.721077 1.04987,0 1.90112,0.322791 1.90112,0.721077"
         style="fill:#ffffff;fill-opacity:1;fill-rule:nonzero;stroke:none;stroke-width:0.0352778"
         id="path108" />
    </g>
  </g>
</svg>
